PathFileType	4	(X/Y/Z)	C:\Users\Basilio\Documents\Thesis Gigler\squatting_fais\c3dfiles\039\SLS_pre_front1\markers_experimental.trc
DataRate	CameraRate	NumFrames	NumMarkers	Units	OrigDataRate	OrigDataStartFrame	OrigNumFrames
200.000000	200.000000	4	63	mm	200.000000	1053	1405
Frame#	Time	FHD			RBHD			C7			T10			LSHO			LUUPA			LMUPA			LDUPA			LLEP			LMEP			LRAD			LUL			LRFIN			RSHO			RUPA1			RMUPA			RDUPA			RLEP			RMEP			RRAD			RUL			RUFIN			LASI			RASI			USACR			LSACR			RSACR			LTHI1			LTHI2			LTHI3			LTHI4			LLFC			LMFC			LTIB1			LTIB2			LTIB3			LTIB4			LLMAL			LMMAL			LHEE			LMT1			LMT2			LMT5			RTHI			RTHI2			RTHI3			RTHI4			RLFC			RMFC			RTIB1			RTIB2			RTIB3			RTIB4			RLMAL			RMMAL			RHEE			RMT1			RMT2			RMT5			LBHD			CLAV			*61			*62			
		X1	Y1	Z1	X2	Y2	Z2	X3	Y3	Z3	X4	Y4	Z4	X5	Y5	Z5	X6	Y6	Z6	X7	Y7	Z7	X8	Y8	Z8	X9	Y9	Z9	X10	Y10	Z10	X11	Y11	Z11	X12	Y12	Z12	X13	Y13	Z13	X14	Y14	Z14	X15	Y15	Z15	X16	Y16	Z16	X17	Y17	Z17	X18	Y18	Z18	X19	Y19	Z19	X20	Y20	Z20	X21	Y21	Z21	X22	Y22	Z22	X23	Y23	Z23	X24	Y24	Z24	X25	Y25	Z25	X26	Y26	Z26	X27	Y27	Z27	X28	Y28	Z28	X29	Y29	Z29	X30	Y30	Z30	X31	Y31	Z31	X32	Y32	Z32	X33	Y33	Z33	X34	Y34	Z34	X35	Y35	Z35	X36	Y36	Z36	X37	Y37	Z37	X38	Y38	Z38	X39	Y39	Z39	X40	Y40	Z40	X41	Y41	Z41	X42	Y42	Z42	X43	Y43	Z43	X44	Y44	Z44	X45	Y45	Z45	X46	Y46	Z46	X47	Y47	Z47	X48	Y48	Z48	X49	Y49	Z49	X50	Y50	Z50	X51	Y51	Z51	X52	Y52	Z52	X53	Y53	Z53	X54	Y54	Z54	X55	Y55	Z55	X56	Y56	Z56	X57	Y57	Z57	X58	Y58	Z58	X59	Y59	Z59	X60	Y60	Z60	X61	Y61	Z61	X62	Y62	Z62	X63	Y63	Z63	

1054	5.265	-318.9330749511719	1794.609497070313	-601.0954589843751	-448.8341369628907	1767.04443359375	-581.4513549804689	-510.1896362304689	1594.660766601563	-677.1271362304689	-511.1942749023439	1288.779907226563	-724.3317260742189	-425.9418029785157	1614.113159179688	-837.7767333984377	-265.2630004882813	1587.45556640625	-956.9259033203127	-242.3454589843751	1620.712524414063	-926.8843383789065	-196.8930358886719	1601.6328125	-961.1968994140627	-130.6328277587891	1614.654296875	-959.8066406250002	-119.720199584961	1542.848754882813	-930.2449340820315	148.9241333007813	1657.302612304688	-882.2612915039065	146.59912109375	1668.597900390625	-957.5556640625002	227.6272583007813	1694.81005859375	-874.8741455078127	-401.7297973632814	1594.680541992188	-513.6862182617189	-242.1674194335938	1527.360229492188	-413.6919250488282	-215.1710357666016	1562.96337890625	-436.9450073242189	-173.0514068603516	1527.632446289063	-412.4130249023439	-110.4270706176758	1544.283569335938	-420.5699768066407	-101.7042617797852	1478.844604492188	-463.1291809082032	175.1300659179688	1602.838989257813	-502.5858154296876	176.710678100586	1593.042602539063	-425.9189758300782	261.7636413574219	1636.904296875	-496.1805114746095	-324.8805847167969	1130.661865234375	-842.149841308594	-339.7746887207032	1095.52001953125	-619.5054931640626	-517.7599487304689	1152.537353515625	-739.2458496093751	-517.5344238281251	1124.501220703125	-771.5732421875002	-524.2322998046876	1118.4765625	-713.7616577148439	-265.7776184082032	879.2589111328127	-940.9368896484377	-199.5204620361329	826.8140869140627	-936.647888183594	-161.2189331054688	849.3235473632815	-917.1420898437502	-200.0184326171876	765.3870239257814	-935.0902099609377	-143.387191772461	657.8703613281251	-939.8763427734377	-119.1790847778321	629.8399047851564	-824.8186035156252	-35.71121978759766	539.4393920898439	-921.3865966796877	-78.69461822509767	483.8127746582032	-974.5955810546877	-38.81752395629884	491.5890502929689	-954.375915527344	-13.12655735015869	412.776336669922	-923.0606689453127	-6.144967079162599	242.764389038086	-976.5938110351565	5.384912967681886	233.8579254150391	-891.2601318359377	-58.31264495849611	168.7685852050782	-947.8288574218752	167.1198425292969	214.5113983154297	-909.1727294921877	165.8093719482422	223.1938171386719	-950.9343872070315	129.1777038574219	199.3568725585938	-1009.119323730469	-368.1168212890626	817.1232910156252	-584.5475463867189	-321.6542358398438	769.1323852539065	-578.7801513671876	-290.2199096679688	776.7288818359377	-580.0269775390626	-335.4362182617188	686.6766967773439	-600.1983032226564	-348.3822326660157	547.4107666015626	-637.8134765625001	-296.2257995605469	550.0537109375001	-745.0468139648439	-306.8792419433594	337.6984252929688	-665.7375488281251	-391.1596984863282	272.7886352539063	-677.1289062500001	-346.0523681640626	263.1453552246094	-671.3459472656251	-323.3567199707032	217.8029174804688	-705.1877441406251	-392.1233215332032	123.2513732910157	-701.9063720703126	-353.0647888183594	150.5795440673828	-778.600769042969	-455.3188781738282	108.9571228027344	-764.6527709960939	-230.3533477783204	64.00708007812501	-769.9665527343752	-235.3928833007813	57.9431495666504	-723.7739868164064	-293.4510498046876	34.99577331542969	-677.9932250976564	-477.9275817871095	1766.463134765625	-719.8379516601564	nan	nan	nan	nan	nan	nan	nan	nan	nan	
1055	5.27	-319.1967468261719	1794.59130859375	-600.4219360351564	-448.9558105468751	1766.81201171875	-581.0650634765626	-510.0461730957032	1594.493530273438	-677.0056762695314	-510.893768310547	1288.725830078125	-724.5870361328126	-425.6769409179689	1614.127685546875	-837.646423339844	-264.9548339843751	1587.356079101563	-956.9459228515627	-242.0328216552735	1620.597045898438	-926.908142089844	-196.6138458251954	1601.457153320313	-961.2061157226565	-130.3069610595703	1614.431396484375	-959.781921386719	-119.5028228759766	1542.581298828125	-930.2463378906252	149.2521362304688	1656.72705078125	-881.837097167969	147.0029754638672	1668.260131835938	-957.158874511719	227.8488006591797	1694.315307617188	-874.4943847656252	-401.8385620117189	1594.331298828125	-513.4374389648439	-242.2576446533204	1526.906372070313	-413.4042053222657	-215.4069061279297	1562.57568359375	-436.463104248047	-173.1302337646485	1527.161499023438	-412.0860595703126	-110.5526428222657	1543.755981445313	-420.1404418945314	-101.7797012329102	1478.496948242188	-462.802215576172	175.0543365478516	1602.79931640625	-502.2534179687501	176.6320190429688	1592.853149414063	-425.4476013183595	261.6180725097657	1636.768432617188	-495.693817138672	-324.5504760742188	1130.43896484375	-842.371520996094	-339.4895324707032	1095.4541015625	-619.5888061523439	-517.4193115234376	1152.552734375	-739.4773559570314	-517.2833862304689	1124.519409179688	-771.858337402344	-523.9337768554689	1118.497314453125	-713.9659423828126	-266.0442810058594	878.789001464844	-941.1248779296877	-200.0976562500001	825.9463500976565	-936.6480102539065	-161.1908721923828	848.117370605469	-917.2098388671877	-200.9172515869141	764.5543823242189	-935.3935546875002	-144.7482604980469	656.6151733398439	-940.2216796875002	-120.9532775878907	628.5028686523439	-825.2554931640627	-37.87340545654298	537.3554687500001	-921.998229980469	-81.4309539794922	481.9844970703126	-975.0952758789065	-41.30479431152344	489.758026123047	-954.6352539062502	-16.17238426208496	411.1834411621095	-923.2525024414065	-9.934259414672853	240.953842163086	-977.2236938476565	1.150158047676087	231.7891387939454	-891.8116455078127	-62.67820358276369	167.2769165039063	-948.5625000000002	163.0361633300782	211.9606475830079	-910.0137939453127	161.3026733398438	220.3589172363282	-951.5831298828127	124.9190292358399	196.7116699218751	-1009.855651855469	-368.0581054687501	817.0364379882815	-584.5797119140626	-321.6296081542969	769.078552246094	-578.7556762695314	-290.1503906250001	776.7141723632815	-579.9310302734376	-335.4318237304688	686.6575317382814	-600.1964111328126	-348.3292541503907	547.3892211914064	-637.7921752929689	-296.0672912597657	549.9760742187501	-744.9805908203126	-306.8717956542969	337.6839904785157	-665.5437011718751	-391.193817138672	272.7165222167969	-677.0728149414064	-346.0779724121094	263.0642089843751	-671.2306518554689	-323.3756103515626	217.7659301757813	-705.0916748046876	-392.1032104492189	123.2278213500977	-701.7683715820314	-353.0606689453126	150.5441131591797	-778.5250244140627	-455.3217773437501	108.9784622192383	-764.5843505859376	-230.4807434082032	64.03546142578126	-769.9964599609377	-235.4112396240235	57.94800567626955	-723.7094116210939	-293.4536437988282	34.92749023437501	-677.9303588867189	-477.906219482422	1766.364135742188	-719.3189697265626	nan	nan	nan	nan	nan	nan	nan	nan	nan	
1056	5.275	-319.3672485351563	1794.459594726563	-599.9290771484376	-449.1499023437501	1766.506958007813	-580.5583496093751	-509.8759155273439	1594.401977539063	-676.9020996093751	-510.7056274414064	1288.694213867188	-724.7782592773439	-424.9642333984376	1614.029296875	-837.6292114257815	-264.7342834472657	1587.239990234375	-956.9731445312502	-241.7351837158204	1620.265014648438	-926.9892578125002	-196.2865295410157	1601.356201171875	-961.2153930664065	-130.0562438964844	1614.1845703125	-959.7889404296877	-119.2790832519532	1542.287963867188	-930.3687133789065	149.5980987548828	1656.201293945313	-881.5107421875002	147.3939361572266	1667.884643554688	-956.7837524414065	228.0354309082032	1693.925048828125	-874.0524902343752	-401.8760986328126	1593.9384765625	-513.1184692382814	-242.3028106689454	1526.49755859375	-413.0650939941407	-215.7393188476563	1561.945678710938	-436.3157653808595	-173.162353515625	1526.662231445313	-411.8802795410157	-110.609733581543	1543.484741210938	-419.8467712402345	-101.7562103271485	1477.881591796875	-462.3401489257814	174.4180297851563	1602.38037109375	-501.7488098144532	176.5548248291016	1592.724365234375	-424.9508666992189	261.4740600585938	1636.618286132813	-495.2164306640626	-323.9805603027344	1130.349365234375	-842.7046508789065	-339.2955017089844	1095.433349609375	-619.8280639648439	-517.1790161132814	1152.5751953125	-739.6617431640626	-516.9938354492189	1124.538330078125	-772.017272949219	-523.7128906250001	1118.529174804688	-714.1865844726564	-266.7167663574219	877.7952270507815	-941.2590942382815	-200.6021423339844	825.414001464844	-936.7189941406252	-161.7118072509766	846.9455566406252	-917.0086669921877	-201.7800750732422	763.6377563476564	-935.5722656250002	-146.3211059570313	655.4826049804689	-940.580017089844	-122.7796936035157	627.2108154296876	-825.554626464844	-40.06525421142579	535.6964111328126	-922.539245605469	-84.08448028564455	480.5195617675782	-975.4585571289065	-44.02679824829102	488.002899169922	-955.0776977539065	-19.09037208557129	408.8539428710939	-923.852966308594	-14.12019729614258	238.8853454589844	-977.9881591796877	-2.702439546585083	229.4368286132813	-892.6254882812502	-67.1030731201172	165.7147674560547	-949.349548339844	158.6463317871094	208.5690002441407	-910.6011352539065	157.3004455566407	217.4606323242188	-952.1094360351565	121.1009140014649	193.9259338378907	-1010.360168457031	-367.9895629882813	817.017517089844	-584.6083984375001	-321.5354919433594	769.047058105469	-578.7901611328126	-290.1013183593751	776.656921386719	-579.8644409179689	-335.3955993652344	686.6561279296876	-600.1793212890626	-348.2458496093751	547.3859863281251	-637.7587890625001	-295.9214782714844	549.9441528320314	-744.8916015625001	-306.8742675781251	337.6259765625001	-665.4996337890626	-391.2340393066407	272.7475891113282	-677.0308837890626	-346.0522766113282	263.0699462890626	-671.1287231445314	-323.3844604492188	217.7505340576172	-705.0615234375001	-392.1279602050782	123.186149597168	-701.7224731445314	-353.0400085449219	150.5501708984375	-778.484313964844	-455.3278198242189	109.0094833374024	-764.5419311523439	-230.2792510986329	63.85572433471681	-769.9431152343752	-235.4279327392579	57.93336105346681	-723.6712646484376	-293.4739990234376	34.89637756347657	-677.8447875976564	-477.9537353515626	1766.284545898438	-718.8818359375001	nan	nan	nan	nan	nan	nan	nan	nan	nan	
1057	5.28	-319.4752197265626	1794.432861328125	-599.5115356445314	-449.4362792968751	1766.381103515625	-579.9419555664064	-509.7054748535157	1594.252807617188	-676.7984008789064	-510.3836059570314	1288.639282226563	-724.9552001953126	-424.6491699218751	1613.975708007813	-837.4991455078127	-264.3333129882813	1587.194458007813	-956.968688964844	-241.4678192138672	1620.480712890625	-926.922790527344	-195.9681243896485	1601.242797851563	-961.2480468750002	-129.7479248046875	1614.184204101563	-959.7343750000002	-118.9961090087891	1542.07373046875	-930.4224243164065	150.0253295898438	1655.745727539063	-881.0930786132815	147.8101501464844	1667.41357421875	-956.3452758789065	228.3294372558594	1693.279174804688	-873.4392700195315	-401.9562377929689	1593.534790039063	-512.8176269531251	-242.4088745117188	1525.818115234375	-412.8302001953126	-215.8354797363282	1561.537841796875	-436.0515136718751	-173.2530670166016	1526.201049804688	-411.5887451171876	-110.7074127197266	1543.130859375	-419.455535888672	-101.8434677124024	1477.658447265625	-461.8520507812501	174.2925262451172	1602.285400390625	-501.276092529297	176.5096588134766	1592.57373046875	-424.4863281250001	261.2550354003907	1636.455688476563	-494.5110473632814	-323.7886352539063	1130.077758789063	-842.8458251953127	-339.0687255859376	1095.37255859375	-619.9398803710939	-516.9040527343751	1152.59228515625	-739.8550415039064	-516.6787719726564	1124.541381835938	-772.190124511719	-523.4552001953126	1118.553955078125	-714.2993774414064	-267.1565551757813	877.3007812500002	-941.3516235351565	-201.2998504638672	824.562438964844	-936.6760864257815	-162.24658203125	846.0566406250002	-917.039978027344	-202.6205596923829	763.0084838867189	-935.6942138671877	-147.7391204833985	654.3173217773439	-940.8369140625002	-124.3169326782227	625.6616821289064	-825.870300292969	-42.45730590820313	534.0440673828126	-922.7390747070315	-86.60586547851564	479.1070861816407	-976.0327148437502	-46.00629806518555	486.412322998047	-955.7354125976565	-22.08660697937012	406.9749450683595	-924.579040527344	-18.1763973236084	237.0823822021485	-978.6118774414065	-6.816156387329103	227.5847778320313	-893.273864746094	-71.56861114501955	164.0899658203125	-950.226501464844	154.2842254638672	205.6051940917969	-911.1831665039065	153.0645599365235	214.5950622558594	-952.9466552734377	116.4833221435547	191.3502197265625	-1011.177001953125	-367.8696289062501	816.9783325195315	-584.6875610351564	-321.4914245605469	769.055114746094	-578.7988281250001	-290.0507812500001	776.597839355469	-579.8029174804689	-335.3828125000001	686.6144409179689	-600.1734619140626	-348.2072143554688	547.3834228515626	-637.7540893554689	-295.8335876464844	549.8661499023439	-744.8863525390626	-306.8317260742188	337.5124511718751	-665.4879150390626	-391.2602844238282	272.7734375000001	-676.9724731445314	-346.0650939941407	263.0466003417969	-671.0639038085939	-323.3992309570313	217.7076416015626	-704.9827270507814	-392.1359252929689	123.1483230590821	-701.7311401367189	-353.0722961425782	150.494125366211	-778.4834594726565	-455.1102905273439	108.5396194458008	-764.7155151367189	-230.4589843750001	64.0664520263672	-769.902282714844	-235.0427398681641	58.4566993713379	-723.2868652343751	-293.5230407714844	34.85588073730469	-677.8412475585939	-477.9371948242189	1766.25341796875	-718.5674438476564	nan	nan	nan	nan	nan	nan	nan	nan	nan	
